<svg xmlns="http://www.w3.org/2000/svg" viewBox="0 0 1000 1000">
  <title>lares_floor3</title>
  <style>
    .bg {
      fill: white;
    }
    .building-fill {
      fill: #f8fafc;
      stroke: none;
    }
    .building-outline {
      fill: none;
      stroke: #001E44;
      stroke-width: 2;
    }
    .room {
      fill: #e6ecf2;
      stroke: #001E44;
      stroke-width: 1;
    }
    .room:hover {
      fill: #cfe3ff;
      cursor: pointer;
    }
    .label {
      font-family: Arial, sans-serif;
      font-size: 10px;
      text-anchor: middle;
      dominant-baseline: middle;
      fill: #001E44;
      pointer-events: none;
      user-select: none;
    }
  </style>
  <rect class="bg" x="0" y="0" width="1000" height="1000" />

  <polygon class="building-fill" points="917.98,802.0 897.52,828.44 874.7,810.64 842.43,852.35 845.65,854.86 828.81,876.62 838.16,883.91 840.01,898.65 821.39,922.72 806.7,924.57 795.16,915.57 748.34,976.08 675.93,919.6 745.14,830.16 744.96,826.57 745.1,822.99 745.56,819.43 746.32,815.92 747.4,812.5 748.77,809.19 750.43,806.01 752.37,802.99 754.56,800.15 756.99,797.53 759.65,795.12 762.51,792.97 765.55,791.08 768.74,789.46 772.06,788.14 775.49,787.11 778.99,786.4 798.2,761.58 750.73,724.55 651.18,853.21 614.76,824.8 609.3,831.85 602.28,826.37 609.1,817.56 565.22,783.33 558.4,792.15 551.37,786.67 556.83,779.62 520.4,751.22 464.18,823.88 425.82,793.96 415.42,807.4 410.26,803.38 410.72,802.79 363.61,766.05 363.16,766.64 358.0,762.62 368.4,749.18 302.13,697.5 291.73,710.94 286.58,706.92 287.03,706.33 239.93,669.6 239.47,670.18 234.32,666.16 244.71,652.72 178.44,601.04 168.05,614.48 162.89,610.46 163.35,609.87 116.24,573.14 115.79,573.72 110.63,569.7 121.03,556.27 83.25,526.8 95.52,510.94 90.84,507.29 91.18,506.85 80.36,498.41 79.77,497.95 79.43,498.39 74.45,494.51 74.8,494.07 63.11,484.96 52.56,476.73 52.22,477.17 20.0,452.05 128.92,116.12 200.26,23.92 230.25,47.31 229.91,47.75 230.49,48.21 252.14,65.09 252.48,64.65 259.13,69.84 258.79,70.28 281.03,87.62 281.37,87.18 288.0,92.36 287.66,92.8 309.9,110.14 310.24,109.7 316.87,114.87 316.53,115.31 338.77,132.65 339.11,132.21 345.74,137.38 345.4,137.82 356.18,146.23 367.64,155.16 367.98,154.72 442.0,212.45 468.36,178.38 518.68,217.62 492.32,251.69 716.87,426.81 714.0,430.52 821.53,514.37 841.3,488.82 848.32,494.3 846.5,496.65 864.13,510.39 929.15,561.1 930.97,558.75 937.99,564.23 934.36,568.93 980.0,604.52 925.68,674.73 933.29,680.66 931.02,683.6 962.32,708.01 909.82,775.86 927.52,789.66 917.98,802.0" />
  <polygon class="building-outline" points="917.98,802.0 897.52,828.44 874.7,810.64 842.43,852.35 845.65,854.86 828.81,876.62 838.16,883.91 840.01,898.65 821.39,922.72 806.7,924.57 795.16,915.57 748.34,976.08 675.93,919.6 745.14,830.16 744.96,826.57 745.1,822.99 745.56,819.43 746.32,815.92 747.4,812.5 748.77,809.19 750.43,806.01 752.37,802.99 754.56,800.15 756.99,797.53 759.65,795.12 762.51,792.97 765.55,791.08 768.74,789.46 772.06,788.14 775.49,787.11 778.99,786.4 798.2,761.58 750.73,724.55 651.18,853.21 614.76,824.8 609.3,831.85 602.28,826.37 609.1,817.56 565.22,783.33 558.4,792.15 551.37,786.67 556.83,779.62 520.4,751.22 464.18,823.88 425.82,793.96 415.42,807.4 410.26,803.38 410.72,802.79 363.61,766.05 363.16,766.64 358.0,762.62 368.4,749.18 302.13,697.5 291.73,710.94 286.58,706.92 287.03,706.33 239.93,669.6 239.47,670.18 234.32,666.16 244.71,652.72 178.44,601.04 168.05,614.48 162.89,610.46 163.35,609.87 116.24,573.14 115.79,573.72 110.63,569.7 121.03,556.27 83.25,526.8 95.52,510.94 90.84,507.29 91.18,506.85 80.36,498.41 79.77,497.95 79.43,498.39 74.45,494.51 74.8,494.07 63.11,484.96 52.56,476.73 52.22,477.17 20.0,452.05 128.92,116.12 200.26,23.92 230.25,47.31 229.91,47.75 230.49,48.21 252.14,65.09 252.48,64.65 259.13,69.84 258.79,70.28 281.03,87.62 281.37,87.18 288.0,92.36 287.66,92.8 309.9,110.14 310.24,109.7 316.87,114.87 316.53,115.31 338.77,132.65 339.11,132.21 345.74,137.38 345.4,137.82 356.18,146.23 367.64,155.16 367.98,154.72 442.0,212.45 468.36,178.38 518.68,217.62 492.32,251.69 716.87,426.81 714.0,430.52 821.53,514.37 841.3,488.82 848.32,494.3 846.5,496.65 864.13,510.39 929.15,561.1 930.97,558.75 937.99,564.23 934.36,568.93 980.0,604.52 925.68,674.73 933.29,680.66 931.02,683.6 962.32,708.01 909.82,775.86 927.52,789.66 917.98,802.0" />
  <polygon id="room_301" class="room" points="819.79,717.6 826.81,723.08 827.38,722.35 836.16,729.19 835.59,729.92 845.83,737.91 826.74,762.58 760.91,711.25 766.36,704.2 766.48,704.05 771.82,697.15 785.0,680.11 824.79,711.14 819.79,717.6" />
  <text class="label" x="808.1" y="717.72">301</text>
  <polygon id="room_302" class="room" points="760.04,922.15 763.26,924.66 755.07,935.23 751.86,932.72 737.03,951.89 698.41,921.77 747.78,857.96 744.27,855.22 752.45,844.65 755.96,847.38 789.6,803.91 796.04,808.93 796.6,808.2 805.38,815.04 804.81,815.78 828.22,834.03 760.04,922.15" />
  <text class="label" x="767.46" y="870.69">302</text>
  <polygon id="room_303" class="room" points="845.21,767.81 861.6,780.59 833.7,816.64 817.32,803.86 827.4,790.83 826.67,790.26 834.4,780.27 835.13,780.84 845.21,767.81" />
  <text class="label" x="836.29" y="786.55">303</text>
  <polygon id="room_304" class="room" points="870.92,768.54 879.11,774.93 870.93,785.51 846.35,766.34 851.8,759.29 851.07,758.72 858.8,748.73 859.53,749.3 874.42,730.06 890.8,742.84 870.92,768.54" />
  <text class="label" x="865.88" y="759.35">304</text>
  <polygon id="room_305" class="room" points="872.92,726.54 872.35,727.28 863.58,720.43 864.14,719.7 862.97,718.78 874.56,703.8 873.83,703.23 880.65,694.42 881.38,694.99 892.97,680.01 943.88,719.71 934.56,731.76 934.34,732.05 934.11,732.34 923.65,745.85 923.43,746.15 913.88,758.49 872.92,726.54" />
  <text class="label" x="895.56" y="721.23">305</text>
  <polygon id="room_305A" class="room" points="874.33,687.13 881.06,692.38 879.92,693.85 880.65,694.42 873.83,703.23 873.1,702.66 871.97,704.13 865.24,698.88 874.33,687.13" />
  <polygon id="room_306" class="room" points="862.85,701.97 864.1,700.35 870.83,705.6 861.51,717.64 854.78,712.4 856.03,710.78 855.3,710.21 862.12,701.4 862.85,701.97" />
  <polygon id="room_307" class="room" points="875.25,682.91 866.27,694.51 865.69,694.06 865.12,694.79 856.34,687.94 856.91,687.21 856.33,686.75 874.51,663.26 859.29,651.39 893.39,607.33 905.38,616.69 905.67,616.92 905.97,617.14 919.42,627.64 919.72,627.87 920.01,628.1 932.0,637.45 897.91,681.51 884.46,671.01 882.07,674.1 882.8,674.67 875.98,683.48 875.25,682.91" />
  <text class="label" x="885.9" y="660.42">307</text>
  <polygon id="room_307A" class="room" points="883.53,675.24 884.78,673.62 891.51,678.87 882.19,690.91 875.46,685.67 876.71,684.05 875.98,683.48 882.8,674.67 883.53,675.24" />
  <polygon id="room_308" class="room" points="841.48,639.85 871.91,663.58 849.98,691.93 850.71,692.5 843.89,701.31 843.16,700.74 841.91,702.36 799.78,669.5 809.1,657.46 809.32,657.16 809.55,656.87 820.01,643.36 820.23,643.06 820.46,642.77 829.78,630.73 832.7,633.01 833.27,632.27 842.05,639.12 841.48,639.85" />
  <text class="label" x="832.15" y="659.86">308</text>
  <polygon id="room_308A" class="room" points="845.54,640.67 842.62,638.39 842.05,639.12 833.27,632.27 833.84,631.54 830.91,629.26 835.01,623.97 849.63,635.38 845.54,640.67" />
  <text class="label" x="839.82" y="634.59">308A</text>
  <polygon id="room_Q301" class="room" points="856.34,687.94 865.12,694.79 864.55,695.52 865.14,695.98 861.39,700.83 862.12,701.4 855.3,710.21 854.57,709.64 852.18,712.72 863.01,721.17 863.58,720.43 872.35,727.28 871.79,728.01 872.96,728.92 858.07,748.16 858.8,748.73 851.07,758.72 850.34,758.15 833.67,779.7 834.4,780.27 826.67,790.26 825.94,789.69 814.72,804.19 840.76,824.5 832.57,835.07 805.95,814.31 805.38,815.04 796.6,808.2 797.17,807.46 787.23,799.71 795.41,789.13 803.6,795.52 848.43,737.58 836.73,728.46 836.16,729.19 827.38,722.35 827.95,721.61 822.39,717.28 827.39,710.81 827.62,710.52 827.84,710.23 835.8,699.95 842.23,704.97 844.62,701.88 843.89,701.31 850.71,692.5 851.44,693.07 855.19,688.22 855.78,688.68 856.34,687.94" />
  <polygon id="room_Z304" class="room" points="790.46,681.54 798.64,670.97 835.8,699.95 827.84,710.23 827.62,710.52 790.46,681.54" />
</svg>
